<svg width="20" height="15" viewBox="0 0 20 15" fill="none" xmlns="http://www.w3.org/2000/svg">
<path fill-rule="evenodd" clip-rule="evenodd" d="M2.58879 2.12829L9.99998 7.31612L17.4112 2.12829C17.2733 1.85577 16.9899 1.66667 16.6666 1.66667H3.33331C3.01001 1.66667 2.72661 1.85577 2.58879 2.12829ZM17.5 4.10055L10.4779 9.01603C10.1909 9.21688 9.80903 9.21688 9.52209 9.01603L2.49998 4.10055V12.5C2.49998 12.9564 2.87688 13.3333 3.33331 13.3333H16.6666C17.1231 13.3333 17.5 12.9564 17.5 12.5V4.10055ZM0.833313 2.5C0.833313 1.1231 1.95641 0 3.33331 0H16.6666C18.0435 0 19.1666 1.1231 19.1666 2.5V12.5C19.1666 13.8769 18.0435 15 16.6666 15H3.33331C1.95641 15 0.833313 13.8769 0.833313 12.5V2.5Z" fill="#1799E5"/>
</svg>
