<svg width="20" height="19" viewBox="0 0 20 19" fill="none" xmlns="http://www.w3.org/2000/svg">
<path d="M5.82371 0.333242H3.33174C2.98365 0.333772 2.64056 0.406373 2.32319 0.546561C2.00574 0.686771 1.72093 0.89158 1.48692 1.14793C1.25294 1.40424 1.07488 1.70649 0.964086 2.03542C0.853303 2.36437 0.812222 2.71274 0.843459 3.0584C1.1321 5.77739 2.05283 8.37763 3.53234 10.6615C4.87347 12.772 6.66809 14.5667 8.7848 15.9118C11.0519 17.3819 13.6395 18.3025 16.3334 18.5952C16.6953 18.628 17.0446 18.5866 17.3743 18.4751C17.704 18.3637 18.0068 18.1845 18.2634 17.9491C18.52 17.7138 18.7245 17.4274 18.864 17.1084C19.0035 16.7894 19.0748 16.4449 19.0734 16.0968L19.0734 13.6001C19.0884 13.0077 18.8778 12.4105 18.4813 11.9426C18.0849 11.4748 17.5304 11.1689 16.9231 11.0833C16.1782 10.985 15.4538 10.8045 14.7564 10.5443C14.311 10.3768 13.8247 10.3404 13.3571 10.4402L13.1838 10.4837C12.7839 10.5993 12.4182 10.8134 12.1208 11.1076L11.5208 11.7075L11.4211 11.6447C9.95959 10.6937 8.71316 9.44723 7.7621 7.98576L7.69915 7.88582L8.296 7.28933C8.63537 6.94616 8.86699 6.51707 8.96668 6.04961C9.06637 5.58216 9.02997 5.09592 8.86178 4.6485C8.60234 3.95323 8.4219 3.22886 8.32459 2.49109C8.23864 1.88275 7.93821 1.33342 7.47825 0.937855C7.01835 0.542334 6.4303 0.327508 5.82371 0.333242ZM3.33283 1.99991H5.83978C6.0421 1.998 6.23819 2.06963 6.39151 2.2015C6.54484 2.33335 6.64498 2.51646 6.67328 2.71669C6.78598 3.57141 6.9969 4.41814 7.301 5.23307C7.35777 5.38409 7.3699 5.54616 7.33667 5.70198C7.30343 5.85781 7.22623 6.00083 7.11421 6.11412L6.05916 7.16914C5.79389 7.4344 5.73857 7.84421 5.924 8.17031C7.18446 10.387 9.01981 12.2224 11.2365 13.4828C11.5626 13.6683 11.9724 13.6129 12.2377 13.3477L13.296 12.2893C13.406 12.1805 13.549 12.1034 13.7047 12.0702C13.8607 12.0369 14.0227 12.049 14.1717 12.1051C14.989 12.41 15.8356 12.6209 16.6978 12.7346C16.8928 12.7621 17.0775 12.8641 17.2097 13.02C17.3419 13.176 17.4121 13.3751 17.407 13.5794L17.4068 16.1001C17.4073 16.2195 17.3835 16.3343 17.337 16.4406C17.2904 16.547 17.2223 16.6425 17.1369 16.7208C17.0512 16.7994 16.9503 16.8591 16.8405 16.8962C16.7305 16.9334 16.614 16.9472 16.4982 16.9368C14.0787 16.6737 11.74 15.8417 9.68516 14.5092C7.76847 13.2912 6.14893 11.6717 4.93508 9.76148C3.59396 7.69118 2.7618 5.34107 2.50208 2.89539C2.49295 2.79318 2.50664 2.67705 2.54358 2.56739C2.5805 2.45777 2.63985 2.35702 2.71783 2.2716C2.79586 2.18613 2.89079 2.11786 2.99659 2.07113C3.10246 2.02436 3.21696 2.00014 3.33283 1.99991Z" fill="#1799E5"/>
</svg>
